<svg id="Layer_1" data-name="Layer 1" xmlns="http://www.w3.org/2000/svg" viewBox="0 0 173.33 184.5"><defs><style>.cls-1{font-size:12px;}.cls-1,.cls-11,.cls-12{font-family:MyriadPro-Bold, Myriad Pro;font-weight:700;}.cls-2{fill:#050506;}.cls-3{fill:#010101;}.cls-4{fill:#020303;}.cls-10,.cls-5,.cls-6,.cls-8,.cls-9{fill:none;stroke-miterlimit:10;}.cls-5{stroke:#000;stroke-width:0.5px;}.cls-6,.cls-8{stroke:#3b3735;}.cls-6{stroke-width:0.29px;}.cls-7{fill:#3b3735;}.cls-8{stroke-width:0.5px;}.cls-10,.cls-9{stroke:#1d1d1b;}.cls-9{stroke-width:0.25px;}.cls-10{stroke-width:0.28px;}.cls-11{font-size:8.74px;}.cls-12{font-size:9.13px;}.cls-13{font-size:8.62px;}</style></defs><g id="FR2433"><text class="cls-1" transform="translate(4.37 13.63)">FR2433</text><path class="cls-2" d="M22,132.64H5.23s-.1.08-.1.1v10l.1.1H22l.1-.1v-10a.47.47,0,0,0-.1-.1m-.29,9.73H5.59v-9.25H21.75Z" transform="translate(0.13 0.13)"/><polygon class="cls-3" points="20 135.21 20 136.17 18.64 136.17 18.64 140.52 17.61 140.52 17.61 136.17 16.32 136.17 16.32 135.21 20 135.21"/><path class="cls-4" d="M8.43,135.09v4.35h1.91c.16,0,.08.81.1,1h-3v-5.31Z" transform="translate(0.13 0.13)"/><path class="cls-4" d="M12.88,135c-2.53.34-2.43,5.07-.07,5.41a2.3,2.3,0,0,0,2.86-2.4c.12-2-.82-3.28-2.79-3m1.69,3.14c-.09,1-.57,1.47-1.51,1.32-1.27-.19-1.26-3.28-.05-3.51,1.41-.27,1.68,1,1.56,2.19" transform="translate(0.13 0.13)"/><polygon class="cls-5" points="118.09 135.94 123.82 138.23 123.82 135.94 128.33 138.23 128.33 135.94 132.84 138.23 132.84 132.76 135.1 132.76 135.1 142.97 118.09 142.97 118.09 135.94"/><rect class="cls-6" x="4.93" y="156.05" width="38.89" height="8.71"/><path class="cls-7" d="M8.65,163a2,2,0,0,1-.9-.19,2,2,0,0,1-.7-.5,1.85,1.85,0,0,1-.41-.72l.59-.24a1.66,1.66,0,0,0,.56.77,1.46,1.46,0,0,0,.88.27,1.43,1.43,0,0,0,.53-.1.8.8,0,0,0,.36-.28.65.65,0,0,0,.13-.41.73.73,0,0,0-.18-.52,1.26,1.26,0,0,0-.54-.29l-1-.29a1.76,1.76,0,0,1-.86-.55,1.35,1.35,0,0,1-.3-.87,1.39,1.39,0,0,1,.2-.74,1.37,1.37,0,0,1,.58-.51,1.85,1.85,0,0,1,.83-.19,2.07,2.07,0,0,1,.84.17,1.89,1.89,0,0,1,.65.45,2,2,0,0,1,.39.64l-.59.25a1.39,1.39,0,0,0-.5-.67,1.36,1.36,0,0,0-.79-.22,1.3,1.3,0,0,0-.49.09.66.66,0,0,0-.32.27.74.74,0,0,0-.12.42.79.79,0,0,0,.18.51,1.15,1.15,0,0,0,.55.34l.87.26a2.08,2.08,0,0,1,.93.54,1.23,1.23,0,0,1,.31.86,1.3,1.3,0,0,1-.22.75,1.43,1.43,0,0,1-.6.51A2,2,0,0,1,8.65,163Z" transform="translate(0.13 0.13)"/><path class="cls-7" d="M12.27,162.88v-4.57h-1.4v-.62h3.48v.62H13v4.57Z" transform="translate(0.13 0.13)"/><path class="cls-7" d="M15,162.88v-5.19h3.38v.62H15.69V160h2.55v.62H15.69v1.67h2.69v.63Z" transform="translate(0.13 0.13)"/><path class="cls-7" d="M19.22,162.88v-5.19h1.83a2,2,0,0,1,.91.19,1.5,1.5,0,0,1,.61.56,1.65,1.65,0,0,1,.22.85,1.55,1.55,0,0,1-.28.93,1.54,1.54,0,0,1-.75.55l1.2,2.11h-.79l-1.27-2.25.45.26H19.9v2Zm.68-2.62h1.17a1.27,1.27,0,0,0,.54-.11.93.93,0,0,0,.36-.35,1,1,0,0,0,.13-.51,1.08,1.08,0,0,0-.13-.52.9.9,0,0,0-.36-.34,1.13,1.13,0,0,0-.54-.12H19.9Z" transform="translate(0.13 0.13)"/><path class="cls-7" d="M23.73,162.88v-5.19h.69v5.19Z" transform="translate(0.13 0.13)"/><path class="cls-7" d="M25.57,162.88v-5.19h.68v4.56h2.28v.63Z" transform="translate(0.13 0.13)"/><path class="cls-7" d="M29.3,162.88v-5.19h3.37v.62H30V160h2.56v.62H30v1.67h2.69v.63Z" transform="translate(0.13 0.13)"/><path class="cls-7" d="M37.8,157.91a7.24,7.24,0,0,1,1.22-.1,2,2,0,0,1,1.43.4,1.28,1.28,0,0,1,.39.95,1.3,1.3,0,0,1-.92,1.25v0a1.26,1.26,0,0,1,.72,1,7,7,0,0,0,.38,1.35h-.66A6.42,6.42,0,0,1,40,161.6c-.14-.68-.41-.93-1-1h-.6v2.14H37.8Zm.64,2.25h.65c.68,0,1.11-.37,1.11-.94s-.46-.91-1.13-.91a2.76,2.76,0,0,0-.63.05Z" transform="translate(0.13 0.13)"/><line class="cls-6" x1="34.88" y1="156.09" x2="34.88" y2="164.75"/><path class="cls-7" d="M51.58,155.79h.55a3.73,3.73,0,0,1,.67.09,4.48,4.48,0,0,1,1,.35,4.76,4.76,0,0,1,.9.58,4.93,4.93,0,0,1,.89,1,4.51,4.51,0,0,1,.4.75,4.44,4.44,0,0,1,.32,1.29,1,1,0,0,0,0,.17v.53a0,0,0,0,0,0,0,3.74,3.74,0,0,1-.09.66,4.07,4.07,0,0,1-.41,1.12,4.27,4.27,0,0,1-.95,1.24,4.34,4.34,0,0,1-1.74,1,4.79,4.79,0,0,1-1.25.19h-.1l-.38,0a4.12,4.12,0,0,1-1.33-.33,4.56,4.56,0,0,1-.91-.52,4.51,4.51,0,0,1-1-1.06,4.71,4.71,0,0,1-.55-1.07,4.2,4.2,0,0,1-.24-1.27,4.38,4.38,0,0,1,.08-1.14,4.54,4.54,0,0,1,.64-1.54,4.63,4.63,0,0,1,.85-1,4.55,4.55,0,0,1,1-.63,4.48,4.48,0,0,1,.72-.28,4.22,4.22,0,0,1,.79-.14Zm-3.29,2.3a4.17,4.17,0,0,0,6.92,4.66l-1.74-1.17v0c-.13.34-.25.67-.37,1,0,0,0,0-.08,0H50v-.26l0-.07.24-.22A13.4,13.4,0,0,0,51.39,161l.43-.51Zm7.1,4.38a4.17,4.17,0,0,0-6.91-4.65l1.65,1.11c0-.16.08-.33.14-.49a1.42,1.42,0,0,1,.45-.65,1.34,1.34,0,0,1,.79-.31,1.54,1.54,0,0,1,1.15.35,1.35,1.35,0,0,1,.47.82,1.5,1.5,0,0,1-.09.81,3,3,0,0,1-.45.83,1.43,1.43,0,0,0-.14.2ZM52,160.19l.18-.4a1.46,1.46,0,0,0,.1-.8.83.83,0,0,0-.42-.62.82.82,0,0,0-.84,0,1,1,0,0,0-.51.63c0,.08,0,.08-.13.09h0Zm.24.56-1.06,1.14h1.36a.72.72,0,0,0,.32-.08.65.65,0,0,0,.25-.27.06.06,0,0,1,.06,0h.17Z" transform="translate(0.13 0.13)"/><polygon class="cls-8" points="72.84 132.76 75.78 132.76 74.31 135.31 72.84 137.87 71.37 135.31 69.89 132.76 72.84 132.76"/><polygon class="cls-8" points="72.84 142.97 69.89 142.97 71.37 140.42 72.84 137.87 74.31 140.42 75.78 142.97 72.84 142.97"/><path class="cls-7" d="M59.89,84.6V79.39h2a2.33,2.33,0,0,1,1,.18,1.53,1.53,0,0,1,.66.57,1.62,1.62,0,0,1,.24.91,1.65,1.65,0,0,1-.25.91,1.45,1.45,0,0,1-.66.56L64,84.6H62.8l-1.28-2.3.7.41H61V84.6ZM61,81.77h.91a.82.82,0,0,0,.4-.09.75.75,0,0,0,.27-.26.72.72,0,0,0,.09-.37.79.79,0,0,0-.09-.38.72.72,0,0,0-.27-.25.82.82,0,0,0-.4-.09H61Z" transform="translate(0.13 0.13)"/><path class="cls-7" d="M66.12,84.69a2,2,0,0,1-1.06-.27,1.86,1.86,0,0,1-.69-.73,2.15,2.15,0,0,1,0-2,2,2,0,0,1,.69-.71,1.86,1.86,0,0,1,1-.26,2,2,0,0,1,.8.15,1.62,1.62,0,0,1,.59.4,1.68,1.68,0,0,1,.37.6,2.21,2.21,0,0,1,.13.74c0,.07,0,.15,0,.22a.8.8,0,0,1,0,.18H65v-.77h2.27l-.49.37a1.09,1.09,0,0,0,0-.54.72.72,0,0,0-.27-.37.82.82,0,0,0-.47-.14.79.79,0,0,0-.47.14.85.85,0,0,0-.3.39,1.52,1.52,0,0,0-.07.63,1.18,1.18,0,0,0,.07.57.85.85,0,0,0,.32.38,1,1,0,0,0,.53.13.9.9,0,0,0,.48-.11.71.71,0,0,0,.31-.31l.84.4a1.2,1.2,0,0,1-.35.49,1.78,1.78,0,0,1-.57.33A2.09,2.09,0,0,1,66.12,84.69Z" transform="translate(0.13 0.13)"/><path class="cls-7" d="M69.68,84.6l-1.51-3.82h1.14l1,2.89h-.43l1-2.89h1.13l-1.5,3.82Z" transform="translate(0.13 0.13)"/><path class="cls-7" d="M74.33,84.69a2,2,0,0,1-1.06-.27,1.86,1.86,0,0,1-.69-.73,2.15,2.15,0,0,1,0-2,2,2,0,0,1,.69-.71,1.89,1.89,0,0,1,1-.26,2,2,0,0,1,.8.15,1.54,1.54,0,0,1,.59.4,1.68,1.68,0,0,1,.37.6,2.21,2.21,0,0,1,.13.74c0,.07,0,.15,0,.22a.8.8,0,0,1,0,.18H73.23v-.77H75.5l-.49.37A1.09,1.09,0,0,0,75,82a.72.72,0,0,0-.27-.37.82.82,0,0,0-.47-.14.79.79,0,0,0-.47.14.85.85,0,0,0-.3.39,1.52,1.52,0,0,0-.07.63,1.18,1.18,0,0,0,.07.57.81.81,0,0,0,.33.38.93.93,0,0,0,.52.13.9.9,0,0,0,.48-.11.71.71,0,0,0,.31-.31l.84.4a1.2,1.2,0,0,1-.35.49,1.78,1.78,0,0,1-.57.33A2.09,2.09,0,0,1,74.33,84.69Z" transform="translate(0.13 0.13)"/><path class="cls-7" d="M76.76,84.6V80.78h1v.92l-.07-.14a1,1,0,0,1,.42-.65,1.26,1.26,0,0,1,.69-.17H79v.91h-.33a.88.88,0,0,0-.62.23.89.89,0,0,0-.24.66V84.6Z" transform="translate(0.13 0.13)"/><path class="cls-7" d="M81,84.69a2,2,0,0,1-1.09-.3,1.52,1.52,0,0,1-.64-.8l.77-.37a1.13,1.13,0,0,0,.4.48,1,1,0,0,0,.56.18.53.53,0,0,0,.34-.09.3.3,0,0,0,.12-.25.24.24,0,0,0,0-.15.65.65,0,0,0-.12-.11,1,1,0,0,0-.21-.08L80.4,83a1.43,1.43,0,0,1-.73-.43,1.09,1.09,0,0,1-.25-.7,1.11,1.11,0,0,1,.18-.63,1.25,1.25,0,0,1,.52-.41,1.62,1.62,0,0,1,.75-.16,1.78,1.78,0,0,1,1,.27,1.34,1.34,0,0,1,.6.74l-.77.36a.72.72,0,0,0-.31-.38.87.87,0,0,0-.5-.15.53.53,0,0,0-.32.09.28.28,0,0,0-.11.23.23.23,0,0,0,0,.14.33.33,0,0,0,.14.11l.23.09.61.18a1.58,1.58,0,0,1,.73.43,1,1,0,0,1,.25.69,1,1,0,0,1-.19.63,1.16,1.16,0,0,1-.51.41A1.87,1.87,0,0,1,81,84.69Z" transform="translate(0.13 0.13)"/><path class="cls-7" d="M84.91,84.69a2,2,0,0,1-1.06-.27,1.86,1.86,0,0,1-.69-.73,2.12,2.12,0,0,1-.24-1,2,2,0,0,1,.25-1,2,2,0,0,1,.69-.71,1.91,1.91,0,0,1,1-.26,2.09,2.09,0,0,1,.81.15,1.62,1.62,0,0,1,.59.4,1.66,1.66,0,0,1,.36.6,2,2,0,0,1,.13.74,1.62,1.62,0,0,1,0,.22.8.8,0,0,1,0,.18H83.82v-.77h2.27l-.5.37a1,1,0,0,0,0-.54.72.72,0,0,0-.27-.37.79.79,0,0,0-.47-.14.82.82,0,0,0-.47.14.78.78,0,0,0-.29.39,1.51,1.51,0,0,0-.08.63,1.18,1.18,0,0,0,.08.57.85.85,0,0,0,.32.38,1,1,0,0,0,.53.13.88.88,0,0,0,.47-.11.74.74,0,0,0,.32-.31l.84.4a1.33,1.33,0,0,1-.36.49,1.78,1.78,0,0,1-.57.33A2.09,2.09,0,0,1,84.91,84.69Z" transform="translate(0.13 0.13)"/><path class="cls-7" d="M91.16,84.69a2.58,2.58,0,0,1-1-.21,2.28,2.28,0,0,1-.83-.57,2.47,2.47,0,0,1-.56-.85,2.87,2.87,0,0,1-.2-1.07,2.65,2.65,0,0,1,.2-1.07,2.49,2.49,0,0,1,.55-.86,2.53,2.53,0,0,1,.84-.56,2.68,2.68,0,0,1,1-.2,2.54,2.54,0,0,1,1,.19A2.44,2.44,0,0,1,93,80a1.76,1.76,0,0,1,.44.7l-1,.47a1.33,1.33,0,0,0-.47-.63,1.28,1.28,0,0,0-.81-.25,1.46,1.46,0,0,0-1.35.82,1.92,1.92,0,0,0-.2.89,2,2,0,0,0,.2.9,1.56,1.56,0,0,0,.54.6,1.53,1.53,0,0,0,.81.21,1.34,1.34,0,0,0,.81-.24,1.38,1.38,0,0,0,.47-.63l1,.46A1.69,1.69,0,0,1,93,84a2.46,2.46,0,0,1-.77.51A2.73,2.73,0,0,1,91.16,84.69Z" transform="translate(0.13 0.13)"/><path class="cls-7" d="M95.38,84.69a1.43,1.43,0,0,1-.79-.21,1.25,1.25,0,0,1-.49-.55,2,2,0,0,1-.17-.83V80.78h1V83a.76.76,0,0,0,.09.38.63.63,0,0,0,.25.26.74.74,0,0,0,.36.09.72.72,0,0,0,.37-.09.63.63,0,0,0,.25-.26.89.89,0,0,0,.08-.38V80.78h1.05V84.6h-1v-.75l.06.16a1,1,0,0,1-.43.51A1.42,1.42,0,0,1,95.38,84.69Z" transform="translate(0.13 0.13)"/><path class="cls-7" d="M100,84.64A1.45,1.45,0,0,1,99,84.27a1.42,1.42,0,0,1-.38-1V81.69h-.65v-.91h0a.61.61,0,0,0,.45-.15.55.55,0,0,0,.16-.44v-.28h1v.87h.89v.91h-.89v1.46a.67.67,0,0,0,.07.33.46.46,0,0,0,.22.19.9.9,0,0,0,.36.06h.11l.13,0v.89l-.23,0Z" transform="translate(0.13 0.13)"/><path class="cls-7" d="M103,84.64a1.45,1.45,0,0,1-1.07-.37,1.39,1.39,0,0,1-.39-1V81.69h-.64v-.91h0a.64.64,0,0,0,.45-.15.59.59,0,0,0,.15-.44v-.28h1.06v.87h.89v.91h-.89v1.46a.81.81,0,0,0,.06.33.46.46,0,0,0,.22.19,1,1,0,0,0,.37.06h.11l.13,0v.89l-.24,0Z" transform="translate(0.13 0.13)"/><path class="cls-7" d="M104.1,80.44v-1h1.05v1Zm0,4.16V80.78h1.05V84.6Z" transform="translate(0.13 0.13)"/><path class="cls-7" d="M105.92,84.6V80.78h1v.75l-.06-.16a1,1,0,0,1,.43-.51,1.42,1.42,0,0,1,.7-.17,1.56,1.56,0,0,1,.76.19,1.44,1.44,0,0,1,.51.5,1.55,1.55,0,0,1,.18.76V84.6h-1V82.37a.8.8,0,0,0-.09-.39.72.72,0,0,0-.24-.25.72.72,0,0,0-1,.25.93.93,0,0,0-.08.39V84.6Z" transform="translate(0.13 0.13)"/><path class="cls-7" d="M112,86.14a2.18,2.18,0,0,1-.82-.15,1.76,1.76,0,0,1-.65-.41,1.49,1.49,0,0,1-.39-.62l1-.34a.75.75,0,0,0,.32.42,1.06,1.06,0,0,0,.57.16,1,1,0,0,0,.44-.1.57.57,0,0,0,.29-.28.82.82,0,0,0,.11-.42v-.88l.2.25a1.18,1.18,0,0,1-.51.48,1.47,1.47,0,0,1-.72.16,1.89,1.89,0,0,1-1-.24,1.74,1.74,0,0,1-.66-.66,2.07,2.07,0,0,1-.23-1,1.94,1.94,0,0,1,.23-1,1.79,1.79,0,0,1,.65-.66,1.85,1.85,0,0,1,.94-.24,1.42,1.42,0,0,1,1.25.67l-.13.25v-.83h1V84.4a1.69,1.69,0,0,1-.92,1.52A2,2,0,0,1,112,86.14Zm0-2.68a1,1,0,0,0,.46-.11.87.87,0,0,0,.31-.32,1,1,0,0,0,.11-.47.92.92,0,0,0-.12-.48.72.72,0,0,0-.3-.32.88.88,0,0,0-.46-.12.91.91,0,0,0-.47.12.71.71,0,0,0-.32.32.92.92,0,0,0-.12.48.94.94,0,0,0,.12.47.74.74,0,0,0,.32.31A.91.91,0,0,0,112,83.46Z" transform="translate(0.13 0.13)"/><polygon class="cls-7" points="86.97 103.24 89.9 103.24 88.43 105.77 86.97 108.31 85.51 105.77 84.04 103.24 86.97 103.24"/><path class="cls-7" d="M106.19,99.84l2.6,1A24.44,24.44,0,0,1,86.64,115,23.26,23.26,0,0,1,78,113.3a24,24,0,0,0,6.93,1A22.68,22.68,0,0,0,92.63,113a22.92,22.92,0,0,0,10.77-8,22.53,22.53,0,0,0,2.79-5.12m-.48-1a21.63,21.63,0,0,1-3,5.7,22,22,0,0,1-17.83,9,22.78,22.78,0,0,1-12.11-3.47,23.5,23.5,0,0,1-9-10.45,24.14,24.14,0,0,0,22.82,16.15,25.33,25.33,0,0,0,23.23-15.34l-4.16-1.62Z" transform="translate(0.13 0.13)"/><path class="cls-9" d="M172.91,184.25V0H115.38c0,16.28-12.95,29.47-28.92,29.47S57.54,16.28,57.54,0H0V184.25Z" transform="translate(0.13 0.13)"/><line class="cls-10" x1="0.61" y1="70.04" x2="173.33" y2="70.04"/><text class="cls-11" transform="translate(5.97 85.59)">3-0 USP</text><text class="cls-12" transform="translate(5.88 94.56)">76 <tspan class="cls-13" x="11.97" y="0">cm</tspan></text><path class="cls-7" d="M60.58,93.08a2.12,2.12,0,0,1-.83-.16,1.85,1.85,0,0,1-.66-.47,1.53,1.53,0,0,1-.37-.7l1-.32a1,1,0,0,0,.35.5.88.88,0,0,0,.55.17A1,1,0,0,0,61,92a.71.71,0,0,0,.29-.28.82.82,0,0,0,.11-.42.89.89,0,0,0-.1-.41.73.73,0,0,0-.29-.26.88.88,0,0,0-.45-.1,1.65,1.65,0,0,0-.31,0,.94.94,0,0,0-.28.1l-.25-.53,1.34-1.45H59v-.91h3.25v.84l-1.37,1.56,0-.44a1.62,1.62,0,0,1,.81.19,1.38,1.38,0,0,1,.54.53,1.6,1.6,0,0,1,.19.8,1.71,1.71,0,0,1-.25.93,1.84,1.84,0,0,1-.68.65A2,2,0,0,1,60.58,93.08Z" transform="translate(0.13 0.13)"/><path class="cls-7" d="M63,93.84l2.31-5.77H66.4l-2.31,5.77Z" transform="translate(0.13 0.13)"/><path class="cls-7" d="M68.76,93.08a2.29,2.29,0,0,1-1-.21,1.64,1.64,0,0,1-.64-.58,1.51,1.51,0,0,1-.23-.79,1.34,1.34,0,0,1,.27-.86,1.67,1.67,0,0,1,.8-.52l-.07.27a1.09,1.09,0,0,1-.6-.46,1.5,1.5,0,0,1-.22-.78,1.37,1.37,0,0,1,.22-.75,1.49,1.49,0,0,1,.6-.51,1.94,1.94,0,0,1,.89-.19,1.86,1.86,0,0,1,.87.19,1.46,1.46,0,0,1,.61.51,1.37,1.37,0,0,1,.22.75,1.5,1.5,0,0,1-.22.78,1.08,1.08,0,0,1-.6.47l-.06-.28a1.84,1.84,0,0,1,.8.53,1.33,1.33,0,0,1,.27.85,1.38,1.38,0,0,1-.23.79,1.67,1.67,0,0,1-.65.58A2.25,2.25,0,0,1,68.76,93.08Zm0-.91a.93.93,0,0,0,.42-.09.71.71,0,0,0,.29-.25.76.76,0,0,0,.1-.37.73.73,0,0,0-.1-.37.71.71,0,0,0-.29-.25,1,1,0,0,0-.84,0,.68.68,0,0,0-.28.25.64.64,0,0,0-.1.37.66.66,0,0,0,.1.37.68.68,0,0,0,.28.25A.93.93,0,0,0,68.76,92.17Zm0-2.33a.57.57,0,0,0,.32-.08.63.63,0,0,0,.21-.22.68.68,0,0,0,.08-.31.69.69,0,0,0-.08-.32.63.63,0,0,0-.21-.22.66.66,0,0,0-.32-.08.7.7,0,0,0-.33.08.63.63,0,0,0-.21.22.59.59,0,0,0-.08.32.58.58,0,0,0,.08.31.63.63,0,0,0,.21.22A.6.6,0,0,0,68.76,89.84Z" transform="translate(0.13 0.13)"/><path class="cls-7" d="M75.17,93.08a2.57,2.57,0,0,1-1-.2,2.37,2.37,0,0,1-.83-.57,2.47,2.47,0,0,1-.56-.85,2.87,2.87,0,0,1-.2-1.07,2.92,2.92,0,0,1,.2-1.08,2.49,2.49,0,0,1,1.39-1.41,2.75,2.75,0,0,1,1-.2,2.54,2.54,0,0,1,1,.19,2.44,2.44,0,0,1,.77.5,1.9,1.9,0,0,1,.45.7l-1,.47a1.33,1.33,0,0,0-.47-.63,1.28,1.28,0,0,0-.81-.25,1.47,1.47,0,0,0-.81.22,1.43,1.43,0,0,0-.54.6,1.91,1.91,0,0,0-.19.89,2,2,0,0,0,.19.9,1.43,1.43,0,0,0,1.35.81,1.34,1.34,0,0,0,.81-.24,1.38,1.38,0,0,0,.47-.63l1,.46a1.83,1.83,0,0,1-.45.7,2.28,2.28,0,0,1-.77.5A2.54,2.54,0,0,1,75.17,93.08Z" transform="translate(0.13 0.13)"/><path class="cls-7" d="M78,88.84v-1h1v1ZM78,93V89.18h1V93Z" transform="translate(0.13 0.13)"/><path class="cls-7" d="M79.84,93V89.18h1v.92L80.75,90a1,1,0,0,1,.42-.65,1.26,1.26,0,0,1,.69-.17h.22v.91h-.33a.84.84,0,0,0-.62.23.89.89,0,0,0-.24.66V93Z" transform="translate(0.13 0.13)"/><path class="cls-7" d="M84.42,93.08a2,2,0,0,1-1-.26,1.87,1.87,0,0,1-.73-.72,2,2,0,0,1,.72-2.75,2.14,2.14,0,0,1,1-.26,2.06,2.06,0,0,1,.79.15,1.92,1.92,0,0,1,.62.41,1.53,1.53,0,0,1,.38.62l-.91.39a.91.91,0,0,0-.34-.45.89.89,0,0,0-.54-.17.92.92,0,0,0-.49.13,1,1,0,0,0-.33.37,1.2,1.2,0,0,0-.12.55,1.23,1.23,0,0,0,.12.55,1,1,0,0,0,.33.37.92.92,0,0,0,.49.13.9.9,0,0,0,.88-.62l.91.4a1.58,1.58,0,0,1-.37.6,1.92,1.92,0,0,1-.62.41A2.07,2.07,0,0,1,84.42,93.08Z" transform="translate(0.13 0.13)"/><path class="cls-7" d="M86.82,93V87.7h1.05V93Z" transform="translate(0.13 0.13)"/><path class="cls-7" d="M90.48,93.08a2,2,0,0,1-1-.27,1.86,1.86,0,0,1-.7-.72,2.12,2.12,0,0,1-.24-1,2,2,0,0,1,.25-1,2,2,0,0,1,.69-.71,1.91,1.91,0,0,1,1-.26,2.05,2.05,0,0,1,.81.15,1.62,1.62,0,0,1,.59.4,1.84,1.84,0,0,1,.37.6,2.21,2.21,0,0,1,.12.74,1.62,1.62,0,0,1,0,.22.8.8,0,0,1,0,.18H89.39v-.77h2.27l-.5.37a.9.9,0,0,0,0-.54.72.72,0,0,0-.27-.37.77.77,0,0,0-.47-.14.82.82,0,0,0-.47.14.84.84,0,0,0-.29.39,1.51,1.51,0,0,0-.08.63,1.18,1.18,0,0,0,.08.57A.85.85,0,0,0,90,92a1,1,0,0,0,.53.13,1,1,0,0,0,.48-.11.77.77,0,0,0,.31-.31l.84.4a1.33,1.33,0,0,1-.36.49,1.78,1.78,0,0,1-.57.33A2.09,2.09,0,0,1,90.48,93.08Z" transform="translate(0.13 0.13)"/><path class="cls-7" d="M94,93l.06-.59,1.59-1.54.61-.6a4.75,4.75,0,0,0,.4-.43,1.52,1.52,0,0,0,.23-.36,1.16,1.16,0,0,0,.07-.37.63.63,0,0,0-.21-.5.82.82,0,0,0-.55-.17,1,1,0,0,0-.66.22,1.44,1.44,0,0,0-.45.63l-.71-.24a2.1,2.1,0,0,1,.4-.72,1.88,1.88,0,0,1,.65-.46,2,2,0,0,1,.81-.17,1.8,1.8,0,0,1,.79.17,1.31,1.31,0,0,1,.55.46,1.19,1.19,0,0,1,.2.71,1.51,1.51,0,0,1-.09.53,1.83,1.83,0,0,1-.25.48,5,5,0,0,1-.38.45c-.14.15-.3.31-.46.46L95.2,92.3h2.37l-.09.7Z" transform="translate(0.13 0.13)"/><path class="cls-7" d="M100.55,93l.16-1.18H98.22l.09-.68,2.92-3.35h.84l-.47,3.35h.71l-.1.68h-.71L101.34,93ZM98.9,91.44l-.1-.3h2l.37-2.7.24.07Z" transform="translate(0.13 0.13)"/><path class="cls-7" d="M104,93l.52-3.79h.76l-.11.79-.08-.12a1.23,1.23,0,0,1,.5-.57,1.38,1.38,0,0,1,.7-.18,1.27,1.27,0,0,1,.78.24,1.15,1.15,0,0,1,.42.66h-.26a1.46,1.46,0,0,1,.61-.68,1.64,1.64,0,0,1,.83-.22,1.26,1.26,0,0,1,.71.19,1.14,1.14,0,0,1,.45.52,1.48,1.48,0,0,1,.08.77L109.59,93h-.79l.32-2.27a1,1,0,0,0,0-.46.64.64,0,0,0-.23-.3.72.72,0,0,0-.4-.11A.92.92,0,0,0,108,90a.89.89,0,0,0-.34.3.94.94,0,0,0-.17.46L107.19,93h-.79l.32-2.27a1,1,0,0,0,0-.46.58.58,0,0,0-.23-.3.72.72,0,0,0-.4-.11.83.83,0,0,0-.44.12.92.92,0,0,0-.34.31,1.25,1.25,0,0,0-.17.48L104.79,93Z" transform="translate(0.13 0.13)"/><path class="cls-7" d="M110.44,93l.52-3.79h.76l-.1.79-.09-.12a1.28,1.28,0,0,1,.5-.57,1.39,1.39,0,0,1,.71-.18,1.24,1.24,0,0,1,.77.24,1.06,1.06,0,0,1,.42.66h-.26a1.48,1.48,0,0,1,.62-.68,1.61,1.61,0,0,1,.83-.22,1.28,1.28,0,0,1,.71.19,1.18,1.18,0,0,1,.44.52,1.3,1.3,0,0,1,.08.77L116,93h-.79l.32-2.27a1,1,0,0,0,0-.46.64.64,0,0,0-.23-.3.7.7,0,0,0-.4-.11,1,1,0,0,0-.43.11.89.89,0,0,0-.34.3.94.94,0,0,0-.17.46L113.62,93h-.79l.32-2.27a.86.86,0,0,0,0-.46.6.6,0,0,0-.24-.3.7.7,0,0,0-.4-.11A.86.86,0,0,0,112,90a1,1,0,0,0-.33.31,1.26,1.26,0,0,0-.18.48L111.22,93Z" transform="translate(0.13 0.13)"/></g></svg>