<svg id="Layer_1" data-name="Layer 1" xmlns="http://www.w3.org/2000/svg" viewBox="0 0 173.33 184.5"><defs><style>.cls-1{font-size:12px;font-family:MyriadPro-Bold, Myriad Pro;font-weight:700;}.cls-2{fill:#050506;}.cls-3{fill:#010101;}.cls-4{fill:#020303;}.cls-10,.cls-5,.cls-6,.cls-8,.cls-9{fill:none;}.cls-5{stroke:#000;stroke-width:0.5px;}.cls-10,.cls-11,.cls-5,.cls-6,.cls-8,.cls-9{stroke-miterlimit:10;}.cls-11,.cls-6,.cls-8{stroke:#3b3735;}.cls-6{stroke-width:0.29px;}.cls-11,.cls-7{fill:#3b3735;}.cls-8{stroke-width:0.5px;}.cls-10,.cls-9{stroke:#1d1d1b;}.cls-9{stroke-width:0.25px;}.cls-10{stroke-width:0.28px;}.cls-11{stroke-width:0.25px;}</style></defs><g id="FT37321"><text class="cls-1" transform="translate(4.37 13.63)">FT37321</text><path class="cls-2" d="M22,132.64H5.23s-.1.08-.1.1v10l.1.1H22l.1-.1v-10a.47.47,0,0,0-.1-.1m-.29,9.73H5.59v-9.25H21.75Z" transform="translate(0.13 0.13)"/><polygon class="cls-3" points="20 135.21 20 136.17 18.64 136.17 18.64 140.52 17.61 140.52 17.61 136.17 16.32 136.17 16.32 135.21 20 135.21"/><path class="cls-4" d="M8.43,135.09v4.35h1.91c.16,0,.08.81.1,1h-3v-5.31Z" transform="translate(0.13 0.13)"/><path class="cls-4" d="M12.88,135c-2.53.34-2.43,5.07-.07,5.41a2.3,2.3,0,0,0,2.86-2.4c.12-2-.82-3.28-2.79-3m1.69,3.14c-.09,1-.57,1.47-1.51,1.32-1.27-.19-1.26-3.28-.05-3.51,1.41-.27,1.68,1,1.56,2.19" transform="translate(0.13 0.13)"/><polygon class="cls-5" points="118.09 135.94 123.82 138.23 123.82 135.94 128.33 138.23 128.33 135.94 132.84 138.23 132.84 132.76 135.1 132.76 135.1 142.97 118.09 142.97 118.09 135.94"/><rect class="cls-6" x="4.93" y="156.05" width="38.89" height="8.71"/><path class="cls-7" d="M8.65,163a2,2,0,0,1-.9-.19,2,2,0,0,1-.7-.5,1.85,1.85,0,0,1-.41-.72l.59-.24a1.66,1.66,0,0,0,.56.77,1.46,1.46,0,0,0,.88.27,1.43,1.43,0,0,0,.53-.1.8.8,0,0,0,.36-.28.65.65,0,0,0,.13-.41.73.73,0,0,0-.18-.52,1.26,1.26,0,0,0-.54-.29l-1-.29a1.76,1.76,0,0,1-.86-.55,1.35,1.35,0,0,1-.3-.87,1.39,1.39,0,0,1,.2-.74,1.37,1.37,0,0,1,.58-.51,1.85,1.85,0,0,1,.83-.19,2.07,2.07,0,0,1,.84.17,1.89,1.89,0,0,1,.65.45,2,2,0,0,1,.39.64l-.59.25a1.39,1.39,0,0,0-.5-.67,1.36,1.36,0,0,0-.79-.22,1.3,1.3,0,0,0-.49.09.66.66,0,0,0-.32.27.74.74,0,0,0-.12.42.79.79,0,0,0,.18.51,1.15,1.15,0,0,0,.55.34l.87.26a2.08,2.08,0,0,1,.93.54,1.23,1.23,0,0,1,.31.86,1.3,1.3,0,0,1-.22.75,1.43,1.43,0,0,1-.6.51A2,2,0,0,1,8.65,163Z" transform="translate(0.13 0.13)"/><path class="cls-7" d="M12.27,162.88v-4.57h-1.4v-.62h3.48v.62H13v4.57Z" transform="translate(0.13 0.13)"/><path class="cls-7" d="M15,162.88v-5.19h3.38v.62H15.69V160h2.55v.62H15.69v1.67h2.69v.63Z" transform="translate(0.13 0.13)"/><path class="cls-7" d="M19.22,162.88v-5.19h1.83a2,2,0,0,1,.91.19,1.5,1.5,0,0,1,.61.56,1.65,1.65,0,0,1,.22.85,1.55,1.55,0,0,1-.28.93,1.54,1.54,0,0,1-.75.55l1.2,2.11h-.79l-1.27-2.25.45.26H19.9v2Zm.68-2.62h1.17a1.27,1.27,0,0,0,.54-.11.93.93,0,0,0,.36-.35,1,1,0,0,0,.13-.51,1.08,1.08,0,0,0-.13-.52.9.9,0,0,0-.36-.34,1.13,1.13,0,0,0-.54-.12H19.9Z" transform="translate(0.13 0.13)"/><path class="cls-7" d="M23.73,162.88v-5.19h.69v5.19Z" transform="translate(0.13 0.13)"/><path class="cls-7" d="M25.57,162.88v-5.19h.68v4.56h2.28v.63Z" transform="translate(0.13 0.13)"/><path class="cls-7" d="M29.3,162.88v-5.19h3.37v.62H30V160h2.56v.62H30v1.67h2.69v.63Z" transform="translate(0.13 0.13)"/><path class="cls-7" d="M37.8,157.91a7.24,7.24,0,0,1,1.22-.1,2,2,0,0,1,1.43.4,1.28,1.28,0,0,1,.39.95,1.3,1.3,0,0,1-.92,1.25v0a1.26,1.26,0,0,1,.72,1,7,7,0,0,0,.38,1.35h-.66A6.42,6.42,0,0,1,40,161.6c-.14-.68-.41-.93-1-1h-.6v2.14H37.8Zm.64,2.25h.65c.68,0,1.11-.37,1.11-.94s-.46-.91-1.13-.91a2.76,2.76,0,0,0-.63.05Z" transform="translate(0.13 0.13)"/><line class="cls-6" x1="34.88" y1="156.09" x2="34.88" y2="164.75"/><path class="cls-7" d="M51.58,155.79h.55a3.73,3.73,0,0,1,.67.09,4.48,4.48,0,0,1,1,.35,4.76,4.76,0,0,1,.9.58,4.93,4.93,0,0,1,.89,1,4.51,4.51,0,0,1,.4.75,4.44,4.44,0,0,1,.32,1.29,1,1,0,0,0,0,.17v.53a0,0,0,0,0,0,0,3.74,3.74,0,0,1-.09.66,4.07,4.07,0,0,1-.41,1.12,4.27,4.27,0,0,1-.95,1.24,4.34,4.34,0,0,1-1.74,1,4.79,4.79,0,0,1-1.25.19h-.1l-.38,0a4.12,4.12,0,0,1-1.33-.33,4.56,4.56,0,0,1-.91-.52,4.51,4.51,0,0,1-1-1.06,4.71,4.71,0,0,1-.55-1.07,4.2,4.2,0,0,1-.24-1.27,4.38,4.38,0,0,1,.08-1.14,4.54,4.54,0,0,1,.64-1.54,4.63,4.63,0,0,1,.85-1,4.55,4.55,0,0,1,1-.63,4.48,4.48,0,0,1,.72-.28,4.22,4.22,0,0,1,.79-.14Zm-3.29,2.3a4.17,4.17,0,0,0,6.92,4.66l-1.74-1.17v0c-.13.34-.25.67-.37,1,0,0,0,0-.08,0H50v-.26l0-.07.24-.22A13.4,13.4,0,0,0,51.39,161l.43-.51Zm7.1,4.38a4.17,4.17,0,0,0-6.91-4.65l1.65,1.11c0-.16.08-.33.14-.49a1.42,1.42,0,0,1,.45-.65,1.34,1.34,0,0,1,.79-.31,1.54,1.54,0,0,1,1.15.35,1.35,1.35,0,0,1,.47.82,1.5,1.5,0,0,1-.09.81,3,3,0,0,1-.45.83,1.43,1.43,0,0,0-.14.2ZM52,160.19l.18-.4a1.46,1.46,0,0,0,.1-.8.83.83,0,0,0-.42-.62.82.82,0,0,0-.84,0,1,1,0,0,0-.51.63c0,.08,0,.08-.13.09h0Zm.24.56-1.06,1.14h1.36a.72.72,0,0,0,.32-.08.65.65,0,0,0,.25-.27.06.06,0,0,1,.06,0h.17Z" transform="translate(0.13 0.13)"/><polygon class="cls-8" points="72.84 132.76 75.78 132.76 74.31 135.31 72.84 137.87 71.37 135.31 69.89 132.76 72.84 132.76"/><polygon class="cls-8" points="72.84 142.97 69.89 142.97 71.37 140.42 72.84 137.87 74.31 140.42 75.78 142.97 72.84 142.97"/><path class="cls-9" d="M172.91,184.25V0H115.38c0,16.28-12.95,29.47-28.92,29.47S57.54,16.28,57.54,0H0V184.25Z" transform="translate(0.13 0.13)"/><line class="cls-10" x1="0.61" y1="70.04" x2="173.33" y2="70.04"/><path class="cls-7" d="M68.3,82.63V78.36H67v-.94h3.71v.94H69.38v4.27Z" transform="translate(0.13 0.13)"/><path class="cls-7" d="M71.91,82.72a1.73,1.73,0,0,1-.71-.14,1,1,0,0,1-.46-.38,1,1,0,0,1-.16-.59,1.1,1.1,0,0,1,.14-.57,1.22,1.22,0,0,1,.45-.42,2.27,2.27,0,0,1,.76-.23l1.17-.19V81l-1,.17a.83.83,0,0,0-.34.14.38.38,0,0,0-.12.3.32.32,0,0,0,.13.27.59.59,0,0,0,.33.1.88.88,0,0,0,.46-.12.72.72,0,0,0,.3-.3.88.88,0,0,0,.11-.42v-1a.48.48,0,0,0-.17-.36.7.7,0,0,0-.47-.15.78.78,0,0,0-.49.16.82.82,0,0,0-.31.4l-.84-.4a1.33,1.33,0,0,1,.35-.55,2,2,0,0,1,.59-.36,2.27,2.27,0,0,1,.75-.12,2,2,0,0,1,.86.17,1.37,1.37,0,0,1,.57.49,1.27,1.27,0,0,1,.21.72v2.52h-1V82l.24,0a1.92,1.92,0,0,1-.37.42,1.58,1.58,0,0,1-.46.25A1.94,1.94,0,0,1,71.91,82.72Z" transform="translate(0.13 0.13)"/><path class="cls-7" d="M74.81,84V78.81h1v.73l-.09-.21a1.31,1.31,0,0,1,.51-.45,1.79,1.79,0,0,1,.75-.15,1.86,1.86,0,0,1,1.68,1,1.93,1.93,0,0,1,.26,1,2,2,0,0,1-.25,1,1.93,1.93,0,0,1-.7.72,1.87,1.87,0,0,1-1,.27,1.72,1.72,0,0,1-.72-.15,1.24,1.24,0,0,1-.54-.42l.17-.22V84Zm2-2.26a1,1,0,0,0,.51-.13.89.89,0,0,0,.35-.37,1.09,1.09,0,0,0,.13-.55,1.08,1.08,0,0,0-.13-.54.89.89,0,0,0-.35-.37,1,1,0,0,0-.51-.14,1.07,1.07,0,0,0-.51.13,1,1,0,0,0-.34.38,1.16,1.16,0,0,0-.12.54,1.2,1.2,0,0,0,.12.55.94.94,0,0,0,.34.37A1,1,0,0,0,76.83,81.77Z" transform="translate(0.13 0.13)"/><path class="cls-7" d="M81.36,82.72a2,2,0,0,1-1.06-.27,1.86,1.86,0,0,1-.69-.73,2.12,2.12,0,0,1-.24-1,2,2,0,0,1,.25-1,1.86,1.86,0,0,1,.69-.7,1.82,1.82,0,0,1,1-.26,2.09,2.09,0,0,1,.81.14,1.76,1.76,0,0,1,.59.4,1.66,1.66,0,0,1,.36.6,2,2,0,0,1,.13.74,1.62,1.62,0,0,1,0,.22,1.06,1.06,0,0,1,0,.19H80.27v-.77h2.27l-.5.36a1,1,0,0,0,0-.54.72.72,0,0,0-.27-.37.79.79,0,0,0-.47-.13.81.81,0,0,0-.47.13.78.78,0,0,0-.29.39,1.51,1.51,0,0,0-.08.63,1.15,1.15,0,0,0,.08.57.85.85,0,0,0,.32.38,1,1,0,0,0,.53.14.89.89,0,0,0,.47-.12.77.77,0,0,0,.32-.3l.84.4a1.41,1.41,0,0,1-.36.49,1.76,1.76,0,0,1-.57.32A2.09,2.09,0,0,1,81.36,82.72Z" transform="translate(0.13 0.13)"/><path class="cls-7" d="M83.8,82.63V78.81h1v.92l-.07-.14a1,1,0,0,1,.41-.65,1.41,1.41,0,0,1,.69-.17H86v.91h-.33a.85.85,0,0,0-.62.23.89.89,0,0,0-.24.66v2.06Z" transform="translate(0.13 0.13)"/><path class="cls-7" d="M87.84,82.63V77.42h2a2.18,2.18,0,0,1,1,.19,1.45,1.45,0,0,1,.66.56,1.62,1.62,0,0,1,.24.91,1.57,1.57,0,0,1-.25.91,1.61,1.61,0,0,1-.65.56,2.24,2.24,0,0,1-1,.19h-.92v1.89Zm1.08-2.83h.92a.82.82,0,0,0,.4-.09.68.68,0,0,0,.27-.26.81.81,0,0,0,0-.74.68.68,0,0,0-.27-.26.82.82,0,0,0-.4-.09h-.92Z" transform="translate(0.13 0.13)"/><path class="cls-7" d="M94.06,82.72a2.1,2.1,0,0,1-1-.26,2,2,0,0,1-.74-.71,1.9,1.9,0,0,1-.28-1,1.87,1.87,0,0,1,.28-1A1.92,1.92,0,0,1,93,79a2.1,2.1,0,0,1,2.8.7,2,2,0,0,1,.27,1,2,2,0,0,1-.27,1,2,2,0,0,1-1.77,1Zm0-1a.91.91,0,0,0,.5-.13,1,1,0,0,0,.34-.37,1.2,1.2,0,0,0,.12-.55,1.19,1.19,0,0,0-.12-.54,1,1,0,0,0-.34-.37,1,1,0,0,0-1,0,.87.87,0,0,0-.34.37,1.08,1.08,0,0,0-.13.54,1.09,1.09,0,0,0,.13.55.87.87,0,0,0,.34.37A.91.91,0,0,0,94.06,81.77Z" transform="translate(0.13 0.13)"/><path class="cls-7" d="M96.72,78.47v-1h1v1Zm0,4.16V78.81h1v3.82Z" transform="translate(0.13 0.13)"/><path class="cls-7" d="M98.54,82.63V78.81h1v.76l-.06-.17a1,1,0,0,1,.43-.51,1.42,1.42,0,0,1,.7-.16,1.55,1.55,0,0,1,.76.18,1.25,1.25,0,0,1,.51.51,1.53,1.53,0,0,1,.18.76v2.45H101V80.4a.8.8,0,0,0-.09-.39.72.72,0,0,0-.24-.25.75.75,0,0,0-.37-.09.69.69,0,0,0-.36.09.67.67,0,0,0-.25.25.8.8,0,0,0-.09.39v2.23Z" transform="translate(0.13 0.13)"/><path class="cls-7" d="M104.57,82.67a1.45,1.45,0,0,1-1.07-.37,1.38,1.38,0,0,1-.38-1V79.72h-.65v-.91h0a.64.64,0,0,0,.45-.15.57.57,0,0,0,.16-.44v-.28h1v.87h.89v.91h-.89v1.46a.67.67,0,0,0,.07.33.39.39,0,0,0,.21.19,1,1,0,0,0,.37.06h.11l.13,0v.89l-.24,0Z" transform="translate(0.13 0.13)"/><path class="cls-7" d="M59.25,91v-4.3h-1v-.91h2.1V91Z" transform="translate(0.13 0.13)"/><path class="cls-7" d="M61.09,91.87,63.4,86.1h1.13l-2.31,5.77Z" transform="translate(0.13 0.13)"/><path class="cls-7" d="M65,91v-.84l1.4-1.44c.28-.28.49-.51.63-.68a1.86,1.86,0,0,0,.29-.41.68.68,0,0,0,.09-.33.59.59,0,0,0-.19-.45.68.68,0,0,0-.47-.17.85.85,0,0,0-.51.17.92.92,0,0,0-.33.5l-.94-.31a1.53,1.53,0,0,1,.35-.71,1.84,1.84,0,0,1,.64-.46,2,2,0,0,1,.79-.17,2,2,0,0,1,.91.19,1.4,1.4,0,0,1,.61.51,1.32,1.32,0,0,1,.22.77,1.52,1.52,0,0,1-.1.55,1.83,1.83,0,0,1-.3.54,4.3,4.3,0,0,1-.51.6l-1.2,1.23H68.5V91Z" transform="translate(0.13 0.13)"/><path class="cls-7" d="M73,91.12a2.58,2.58,0,0,1-1-.21,2.39,2.39,0,0,1-.83-.56,2.61,2.61,0,0,1-.56-.86,2.83,2.83,0,0,1-.2-1.07,2.68,2.68,0,0,1,.2-1.07,2.49,2.49,0,0,1,.55-.86A2.62,2.62,0,0,1,73,85.73a2.73,2.73,0,0,1,1,.19,2.46,2.46,0,0,1,.77.51,1.69,1.69,0,0,1,.44.7l-1,.46a1.38,1.38,0,0,0-.47-.63,1.35,1.35,0,0,0-.81-.25,1.53,1.53,0,0,0-.81.22,1.43,1.43,0,0,0-.54.6,1.92,1.92,0,0,0-.2.89,2,2,0,0,0,.2.9,1.56,1.56,0,0,0,.54.6,1.53,1.53,0,0,0,.81.22,1.35,1.35,0,0,0,.81-.25,1.38,1.38,0,0,0,.47-.63l1,.46a1.69,1.69,0,0,1-.44.7,2.46,2.46,0,0,1-.77.51A2.73,2.73,0,0,1,73,91.12Z" transform="translate(0.13 0.13)"/><path class="cls-7" d="M75.89,86.87V85.82h1v1.05Zm0,4.16V87.21h1V91Z" transform="translate(0.13 0.13)"/><path class="cls-7" d="M77.71,91V87.21h1v.92L78.62,88a1,1,0,0,1,.42-.65,1.36,1.36,0,0,1,.69-.17H80v.91h-.33a.86.86,0,0,0-.62.23.89.89,0,0,0-.24.66V91Z" transform="translate(0.13 0.13)"/><path class="cls-7" d="M82.29,91.12a2,2,0,0,1-1-.27,1.91,1.91,0,0,1-.73-.71,2.1,2.1,0,0,1,0-2,1.91,1.91,0,0,1,.73-.71,2,2,0,0,1,1-.26,2.26,2.26,0,0,1,.79.14,1.92,1.92,0,0,1,.62.41,1.41,1.41,0,0,1,.37.62l-.91.39a.84.84,0,0,0-.33-.45.94.94,0,0,0-.54-.17,1,1,0,0,0-.49.13.94.94,0,0,0-.33.38,1.05,1.05,0,0,0-.13.54,1.09,1.09,0,0,0,.13.55.91.91,0,0,0,.33.37.9.9,0,0,0,.49.13.9.9,0,0,0,.87-.62l.91.4a1.55,1.55,0,0,1-.36.6,1.79,1.79,0,0,1-.62.42A2.11,2.11,0,0,1,82.29,91.12Z" transform="translate(0.13 0.13)"/><path class="cls-7" d="M84.69,91v-5.3h1V91Z" transform="translate(0.13 0.13)"/><path class="cls-7" d="M88.35,91.12a2,2,0,0,1-1.06-.27,1.8,1.8,0,0,1-.69-.73,2.12,2.12,0,0,1-.24-1,2,2,0,0,1,.25-1,1.86,1.86,0,0,1,.69-.7,1.82,1.82,0,0,1,1-.26,2.09,2.09,0,0,1,.81.14,1.76,1.76,0,0,1,.59.4,1.66,1.66,0,0,1,.36.6,2,2,0,0,1,.13.74,1.62,1.62,0,0,1,0,.22,1.06,1.06,0,0,1,0,.19H87.26v-.77h2.27L89,89a1,1,0,0,0,0-.54.72.72,0,0,0-.27-.37.79.79,0,0,0-.47-.13.81.81,0,0,0-.47.13.78.78,0,0,0-.29.39,1.51,1.51,0,0,0-.08.63,1.15,1.15,0,0,0,.08.57.79.79,0,0,0,.32.38,1,1,0,0,0,.52.14.9.9,0,0,0,.48-.12.77.77,0,0,0,.32-.3l.84.4a1.41,1.41,0,0,1-.36.49,1.76,1.76,0,0,1-.57.32A2.09,2.09,0,0,1,88.35,91.12Z" transform="translate(0.13 0.13)"/><path class="cls-7" d="M93.76,91.12A1.89,1.89,0,0,1,93,91a1.57,1.57,0,0,1-.61-.43,1.46,1.46,0,0,1-.32-.66l.73-.27a1.07,1.07,0,0,0,.37.58,1.23,1.23,0,0,0,1.24.06.93.93,0,0,0,.39-.37,1,1,0,0,0,.15-.55.89.89,0,0,0-.12-.47.8.8,0,0,0-.33-.3,1.07,1.07,0,0,0-.49-.11l-.25,0-.24.07-.14-.4,1.54-1.61H92.66l.09-.7h3.19l-.08.66-1.5,1.61,0-.27a1.41,1.41,0,0,1,.76.2,1.34,1.34,0,0,1,.5.53,1.7,1.7,0,0,1,.17.76,1.72,1.72,0,0,1-.15.72,1.66,1.66,0,0,1-.43.58,2.14,2.14,0,0,1-.64.37A2.1,2.1,0,0,1,93.76,91.12Z" transform="translate(0.13 0.13)"/><path class="cls-7" d="M96.37,91l2.89-4.52H96.78l.1-.7h3.36l-.09.7L97.32,91Z" transform="translate(0.13 0.13)"/><path class="cls-7" d="M101.47,91l.53-3.78h.76l-.11.79-.08-.13a1.28,1.28,0,0,1,.5-.57,1.35,1.35,0,0,1,.7-.18,1.29,1.29,0,0,1,.78.24,1.15,1.15,0,0,1,.42.66h-.26a1.46,1.46,0,0,1,.61-.68,1.64,1.64,0,0,1,.83-.22,1.26,1.26,0,0,1,.71.19,1.2,1.2,0,0,1,.45.52,1.48,1.48,0,0,1,.08.77L107.05,91h-.78l.32-2.27a1.11,1.11,0,0,0,0-.46.64.64,0,0,0-.23-.3.72.72,0,0,0-.4-.1.91.91,0,0,0-.43.1.89.89,0,0,0-.34.3,1,1,0,0,0-.18.46L104.66,91h-.79l.31-2.27a.86.86,0,0,0,0-.46.64.64,0,0,0-.23-.3.72.72,0,0,0-.4-.1.82.82,0,0,0-.44.11.92.92,0,0,0-.34.31,1.1,1.1,0,0,0-.17.49L102.26,91Z" transform="translate(0.13 0.13)"/><path class="cls-7" d="M107.91,91l.52-3.78h.76l-.11.79-.08-.13a1.34,1.34,0,0,1,.5-.57,1.38,1.38,0,0,1,.7-.18,1.25,1.25,0,0,1,.78.24,1.06,1.06,0,0,1,.42.66h-.26a1.48,1.48,0,0,1,.62-.68,1.58,1.58,0,0,1,.82-.22,1.29,1.29,0,0,1,.72.19,1.24,1.24,0,0,1,.44.52,1.3,1.3,0,0,1,.08.77L113.49,91h-.79l.32-2.27a1,1,0,0,0,0-.46.64.64,0,0,0-.23-.3.72.72,0,0,0-.4-.1.91.91,0,0,0-.43.1.89.89,0,0,0-.34.3,1,1,0,0,0-.17.46L111.09,91h-.79l.32-2.27a1,1,0,0,0,0-.46.6.6,0,0,0-.24-.3.72.72,0,0,0-.4-.1.85.85,0,0,0-.44.11,1,1,0,0,0-.34.31,1.42,1.42,0,0,0-.17.49L108.69,91Z" transform="translate(0.13 0.13)"/><path class="cls-7" d="M85.41,103.89a3.8,3.8,0,1,0,3.81,3.8,3.8,3.8,0,0,0-3.81-3.8Zm0,7.11a3.31,3.31,0,1,1,3.31-3.31A3.31,3.31,0,0,1,85.41,111Z" transform="translate(0.13 0.13)"/><circle class="cls-7" cx="85.54" cy="107.81" r="1.27"/><path class="cls-11" d="M106.6,99.53a21.58,21.58,0,0,1-1.94,7.7,20.77,20.77,0,0,1-4.74,6.49,21.22,21.22,0,0,1-6.65,4.17,20.69,20.69,0,0,1-7.66,1.47,19.74,19.74,0,0,1-7.67-1.53,19.38,19.38,0,0,1-1.89-.92c.34.16.69.31,1,.44a20.35,20.35,0,0,0,15.08-.18A19.33,19.33,0,0,0,104,99.53h2.62m.76-.72h-4.11a18.47,18.47,0,0,1-5,13.21,18.75,18.75,0,0,1-13.87,6,19.25,19.25,0,0,1-13.28-5.25,20,20,0,0,1-6.29-13.94,20.53,20.53,0,0,0,5.56,14.66,20.91,20.91,0,0,0,15.2,6.61,21.81,21.81,0,0,0,21.75-21.27Z" transform="translate(0.13 0.13)"/><path class="cls-7" d="M5.87,85.54v-1l1.6-1.64c.31-.33.55-.59.71-.78a2.41,2.41,0,0,0,.34-.47.92.92,0,0,0,.09-.38.64.64,0,0,0-.21-.51.75.75,0,0,0-.53-.19,1,1,0,0,0-.59.19,1,1,0,0,0-.37.57L5.83,81a1.63,1.63,0,0,1,.4-.81A1.94,1.94,0,0,1,7,79.68a2.18,2.18,0,0,1,.91-.19,2.44,2.44,0,0,1,1,.21,1.55,1.55,0,0,1,.94,1.46,2,2,0,0,1-.11.63,3,3,0,0,1-.34.62,6.45,6.45,0,0,1-.59.69L7.44,84.5H9.91v1Z" transform="translate(0.13 0.13)"/><path class="cls-7" d="M11.21,84V83h3.6v1Z" transform="translate(0.13 0.13)"/><path class="cls-7" d="M18.52,85.64a2.15,2.15,0,0,1-1.25-.38,2.55,2.55,0,0,1-.84-1.08,3.94,3.94,0,0,1-.31-1.62,4,4,0,0,1,.3-1.62,2.58,2.58,0,0,1,.84-1.07,2.28,2.28,0,0,1,2.52,0A2.55,2.55,0,0,1,20.62,81a4.47,4.47,0,0,1,0,3.22,2.55,2.55,0,0,1-.84,1.08A2.1,2.1,0,0,1,18.52,85.64Zm0-1.12a.9.9,0,0,0,.62-.23,1.52,1.52,0,0,0,.4-.67,3.7,3.7,0,0,0,.13-1.06,3.58,3.58,0,0,0-.13-1,1.46,1.46,0,0,0-.4-.67,1,1,0,0,0-.64-.23.91.91,0,0,0-.62.23,1.45,1.45,0,0,0-.39.67,3.56,3.56,0,0,0-.14,1,3.61,3.61,0,0,0,.14,1,1.45,1.45,0,0,0,.39.67A.93.93,0,0,0,18.53,84.52Z" transform="translate(0.13 0.13)"/><path class="cls-7" d="M25.66,85.64a2.61,2.61,0,0,1-1.26-.3,2.13,2.13,0,0,1-.87-.81,2.18,2.18,0,0,1-.31-1.17V79.58h1.24v3.7a1.37,1.37,0,0,0,.15.64,1.21,1.21,0,0,0,.43.44,1.28,1.28,0,0,0,1.24,0,1.11,1.11,0,0,0,.42-.44,1.27,1.27,0,0,0,.16-.64v-3.7H28.1v3.78a2.18,2.18,0,0,1-.32,1.17,2.13,2.13,0,0,1-.87.81A2.54,2.54,0,0,1,25.66,85.64Z" transform="translate(0.13 0.13)"/><path class="cls-7" d="M31.25,85.64a2.84,2.84,0,0,1-1.05-.2,2.52,2.52,0,0,1-.85-.58,2.3,2.3,0,0,1-.53-.89l1-.46a1.91,1.91,0,0,0,.62.77,1.49,1.49,0,0,0,.88.28,1.15,1.15,0,0,0,.44-.08.72.72,0,0,0,.29-.22.58.58,0,0,0,0-.69.73.73,0,0,0-.4-.23L30.47,83a2.22,2.22,0,0,1-1.08-.66,1.54,1.54,0,0,1-.36-1,1.65,1.65,0,0,1,.26-.92,1.8,1.8,0,0,1,.73-.63,2.45,2.45,0,0,1,1.08-.22,2.64,2.64,0,0,1,1,.18,2.36,2.36,0,0,1,.79.52,2.25,2.25,0,0,1,.5.81l-1,.46a1.46,1.46,0,0,0-.5-.66,1.37,1.37,0,0,0-.77-.23,1,1,0,0,0-.44.08.64.64,0,0,0-.3.23.55.55,0,0,0-.1.34.53.53,0,0,0,.13.36,1,1,0,0,0,.41.24l1.15.37a2.33,2.33,0,0,1,1.07.65,1.51,1.51,0,0,1,.36,1,1.63,1.63,0,0,1-.27.92,1.92,1.92,0,0,1-.75.63A2.59,2.59,0,0,1,31.25,85.64Z" transform="translate(0.13 0.13)"/><path class="cls-7" d="M34.26,85.54v-6h2.29a2.68,2.68,0,0,1,1.09.22,1.73,1.73,0,0,1,.75.64,1.91,1.91,0,0,1,.27,1,1.8,1.8,0,0,1-.28,1,1.68,1.68,0,0,1-.75.64,2.51,2.51,0,0,1-1.08.22h-1v2.16ZM35.5,82.3h1a1,1,0,0,0,.46-.1.76.76,0,0,0,.3-.29.82.82,0,0,0,.11-.42.83.83,0,0,0-.11-.43.7.7,0,0,0-.3-.29,1,1,0,0,0-.46-.11h-1Z" transform="translate(0.13 0.13)"/><path class="cls-7" d="M6.89,94.54V89.63H5.73v-1h2.4v6Z" transform="translate(0.13 0.13)"/><path class="cls-7" d="M11.63,94.64a2.15,2.15,0,0,1-1.25-.38,2.55,2.55,0,0,1-.84-1.08,4.1,4.1,0,0,1-.31-1.62,4,4,0,0,1,.3-1.62,2.58,2.58,0,0,1,.84-1.07,2.28,2.28,0,0,1,2.52,0A2.55,2.55,0,0,1,13.73,90a4.47,4.47,0,0,1,0,3.22,2.55,2.55,0,0,1-.84,1.08A2.1,2.1,0,0,1,11.63,94.64Zm0-1.12a.92.92,0,0,0,.63-.23,1.51,1.51,0,0,0,.39-.67,3.7,3.7,0,0,0,.13-1.06,3.58,3.58,0,0,0-.13-1,1.38,1.38,0,0,0-.4-.67,1,1,0,0,0-1.26,0,1.45,1.45,0,0,0-.39.67,3.56,3.56,0,0,0-.14,1,3.66,3.66,0,0,0,.14,1,1.38,1.38,0,0,0,.4.67A.88.88,0,0,0,11.64,93.52Z" transform="translate(0.13 0.13)"/><path class="cls-7" d="M17.23,94.64A2.15,2.15,0,0,1,16,94.26a2.55,2.55,0,0,1-.84-1.08,4.11,4.11,0,0,1-.3-1.62,4,4,0,0,1,.29-1.62A2.66,2.66,0,0,1,16,88.87a2.18,2.18,0,0,1,1.26-.38,2.16,2.16,0,0,1,1.26.38A2.65,2.65,0,0,1,19.34,90a4.61,4.61,0,0,1,0,3.22,2.65,2.65,0,0,1-.85,1.08A2.07,2.07,0,0,1,17.23,94.64Zm0-1.12a.92.92,0,0,0,.63-.23,1.51,1.51,0,0,0,.39-.67,3.7,3.7,0,0,0,.13-1.06,3.58,3.58,0,0,0-.13-1,1.38,1.38,0,0,0-.4-.67,1,1,0,0,0-1.26,0,1.45,1.45,0,0,0-.39.67,3.56,3.56,0,0,0-.14,1,3.66,3.66,0,0,0,.14,1,1.38,1.38,0,0,0,.4.67A.88.88,0,0,0,17.24,93.52Z" transform="translate(0.13 0.13)"/><path class="cls-7" d="M24.06,94.64a2.33,2.33,0,0,1-1.18-.3,2.18,2.18,0,0,1-.83-.82,2.23,2.23,0,0,1-.31-1.17,2.25,2.25,0,0,1,.3-1.16,2.09,2.09,0,0,1,.83-.81,2.39,2.39,0,0,1,1.19-.3,2.44,2.44,0,0,1,.9.17,2,2,0,0,1,.71.47,1.75,1.75,0,0,1,.43.7l-1,.45a1.06,1.06,0,0,0-.38-.52,1.11,1.11,0,0,0-1.18,0,1,1,0,0,0-.38.43,1.23,1.23,0,0,0-.14.62,1.26,1.26,0,0,0,.14.62,1.06,1.06,0,0,0,.38.43,1,1,0,0,0,.56.15,1,1,0,0,0,.62-.19,1.06,1.06,0,0,0,.38-.52l1,.45a1.65,1.65,0,0,1-.42.69,2.22,2.22,0,0,1-.71.48A2.46,2.46,0,0,1,24.06,94.64Z" transform="translate(0.13 0.13)"/><path class="cls-7" d="M26.8,94.54V90.18h1.12v1.06l-.12-.18a1.1,1.1,0,0,1,.47-.74,1.54,1.54,0,0,1,.88-.24,1.61,1.61,0,0,1,1,.28,1.15,1.15,0,0,1,.52.74l-.35,0a1.62,1.62,0,0,1,.62-.79,1.72,1.72,0,0,1,.94-.26,1.63,1.63,0,0,1,.83.21,1.39,1.39,0,0,1,.57.58,1.72,1.72,0,0,1,.21.87v2.8h-1.2V92a1,1,0,0,0-.09-.44.73.73,0,0,0-.26-.29.76.76,0,0,0-.41-.1.74.74,0,0,0-.4.1.75.75,0,0,0-.27.29,1,1,0,0,0-.09.44v2.55h-1.2V92a1,1,0,0,0-.09-.44.73.73,0,0,0-.26-.29.76.76,0,0,0-.41-.1.74.74,0,0,0-.4.1.75.75,0,0,0-.27.29A1,1,0,0,0,28,92v2.55Z" transform="translate(0.13 0.13)"/></g></svg>